<!--?xml version="1.0" standalone="no"?-->
              <svg id="sw-js-blob-svg" viewBox="0 0 100 100" xmlns="http://www.w3.org/2000/svg" version="1.1">
                    <defs> 
                        <linearGradient id="sw-gradient" x1="0" x2="1" y1="1" y2="0">
                            <stop id="stop1" stop-color="rgba(248, 117, 55, 1)" offset="0%"></stop>
                            <stop id="stop2" stop-color="rgba(2.969, 79.984, 255, 1)" offset="100%"></stop>
                        </linearGradient>
                    </defs>
                <path fill="url(#sw-gradient)" d="M20.5,-35.3C26.5,-32,31.3,-26.4,34.2,-20.2C37.1,-13.9,38.1,-6.9,37.1,-0.6C36.2,5.8,33.2,11.6,30.5,18.2C27.8,24.8,25.3,32.3,20.3,37.4C15.3,42.6,7.6,45.6,0.1,45.3C-7.3,45,-14.7,41.6,-19.8,36.4C-24.8,31.3,-27.7,24.4,-29.8,18.1C-31.9,11.7,-33.4,5.9,-33.2,0.1C-33,-5.7,-31.2,-11.3,-28.8,-17.1C-26.3,-22.8,-23.1,-28.7,-18.2,-32.6C-13.3,-36.6,-6.6,-38.7,0.3,-39.2C7.2,-39.7,14.4,-38.6,20.5,-35.3Z" width="100%" height="100%" transform="translate(50 50)" stroke-width="0" style="transition: all 0.3s ease 0s;"></path>
              </svg>